{"extensionsUsed" : ["KHR_materials_specular", "KHR_materials_ior"], "accessors" : [{"bufferView" : 0, "byteOffset" : 0, "componentType" : 5123, "count" : 960, "type" : "SCALAR", "max" : [784], "min" : [0]}, {"bufferView" : 1, "byteOffset" : 0, "componentType" : 5126, "count" : 785, "type" : "VEC3", "max" : [0.04599851369857788, 2.1702003479003906, 1.3463318347930908], "min" : [-2.9222354888916016, -2.1679794788360596, -1.3463318347930908], "name" : "POSITION"}, {"bufferView" : 1, "byteOffset" : 12, "componentType" : 5126, "count" : 785, "type" : "VEC3", "max" : [1.0000044107437134, 1.0000044107437134, 1.0000044107437134], "min" : [-1.0000044107437134, -1.0000044107437134, -1.0000044107437134], "name" : "NORMAL"}, {"bufferView" : 1, "byteOffset" : 24, "componentType" : 5126, "count" : 785, "type" : "VEC2", "max" : [1, 1], "min" : [-1.2053295250780138E-08, 0.1713097095489502], "name" : "TEXCOORD_0"}, {"bufferView" : 0, "byteOffset" : 1920, "componentType" : 5123, "count" : 36, "type" : "SCALAR", "max" : [29], "min" : [0]}, {"bufferView" : 2, "byteOffset" : 0, "componentType" : 5126, "count" : 30, "type" : "VEC3", "max" : [5.16785192489624, 2.016338348388672, 0.7168729305267334], "min" : [4.849298477172852, -0.06499291211366653, -0.7168726325035095], "name" : "POSITION"}, {"bufferView" : 2, "byteOffset" : 12, "componentType" : 5126, "count" : 30, "type" : "VEC3", "max" : [1.0000044107437134, 1.0000044107437134, 1.0000044107437134], "min" : [-1.0000044107437134, -1.0000044107437134, -1.0000044107437134], "name" : "NORMAL"}, {"bufferView" : 2, "byteOffset" : 24, "componentType" : 5126, "count" : 30, "type" : "VEC2", "max" : [0.875, 1], "min" : [0.125, 0], "name" : "TEXCOORD_0"}, {"bufferView" : 0, "byteOffset" : 1992, "componentType" : 5123, "count" : 72, "type" : "SCALAR", "max" : [59], "min" : [0]}, {"bufferView" : 3, "byteOffset" : 0, "componentType" : 5126, "count" : 60, "type" : "VEC3", "max" : [13.694786071777344, 28.06655502319336, 2.532714605331421], "min" : [13.222845077514648, 24.275066375732422, -2.532714605331421], "name" : "POSITION"}, {"bufferView" : 3, "byteOffset" : 12, "componentType" : 5126, "count" : 60, "type" : "VEC3", "max" : [1.0000044107437134, 1.0000044107437134, 1.0000044107437134], "min" : [-1.0000044107437134, -1.0000044107437134, -1.0000044107437134], "name" : "NORMAL"}, {"bufferView" : 3, "byteOffset" : 24, "componentType" : 5126, "count" : 60, "type" : "VEC2", "max" : [0.875, 1], "min" : [0.125, 0], "name" : "TEXCOORD_0"}, {"bufferView" : 0, "byteOffset" : 2136, "componentType" : 5123, "count" : 72, "type" : "SCALAR", "max" : [59], "min" : [0]}, {"bufferView" : 4, "byteOffset" : 0, "componentType" : 5126, "count" : 60, "type" : "VEC3", "max" : [9.019612312316895, 28.06655502319336, 2.532714605331421], "min" : [8.5476713180542, 24.275066375732422, -2.532714605331421], "name" : "POSITION"}, {"bufferView" : 4, "byteOffset" : 12, "componentType" : 5126, "count" : 60, "type" : "VEC3", "max" : [1.0000044107437134, 1.0000044107437134, 1.0000044107437134], "min" : [-1.0000044107437134, -1.0000044107437134, -1.0000044107437134], "name" : "NORMAL"}, {"bufferView" : 4, "byteOffset" : 24, "componentType" : 5126, "count" : 60, "type" : "VEC2", "max" : [0.875, 1], "min" : [0.125, 0], "name" : "TEXCOORD_0"}, {"bufferView" : 0, "byteOffset" : 2280, "componentType" : 5123, "count" : 1716, "type" : "SCALAR", "max" : [1431], "min" : [0]}, {"bufferView" : 5, "byteOffset" : 0, "componentType" : 5126, "count" : 1432, "type" : "VEC3", "max" : [44.829002380371094, 137.6961212158203, 2.776923179626465], "min" : [39.199127197265625, 123.62034606933594, -2.8529605865478516], "name" : "POSITION"}, {"bufferView" : 5, "byteOffset" : 12, "componentType" : 5126, "count" : 1432, "type" : "VEC3", "max" : [0.9951908588409424, 1.0000044107437134, 0.9951908588409424], "min" : [-0.9951908588409424, -1.0000044107437134, -0.9951908588409424], "name" : "NORMAL"}, {"bufferView" : 5, "byteOffset" : 24, "componentType" : 5126, "count" : 1432, "type" : "VEC2", "max" : [1, 0.9900000095367432], "min" : [0, 0], "name" : "TEXCOORD_0"}, {"bufferView" : 0, "byteOffset" : 5712, "componentType" : 5123, "count" : 36, "type" : "SCALAR", "max" : [29], "min" : [0]}, {"bufferView" : 6, "byteOffset" : 0, "componentType" : 5126, "count" : 30, "type" : "VEC3", "max" : [1, 0.5715434551239014, 1], "min" : [-1, -1.4284565448760986, -1], "name" : "POSITION"}, {"bufferView" : 6, "byteOffset" : 12, "componentType" : 5126, "count" : 30, "type" : "VEC3", "max" : [1.0000044107437134, 1.0000044107437134, 1.0000044107437134], "min" : [-1.0000044107437134, -1.0000044107437134, -1.0000044107437134], "name" : "NORMAL"}, {"bufferView" : 6, "byteOffset" : 24, "componentType" : 5126, "count" : 30, "type" : "VEC2", "max" : [0.875, 1], "min" : [0.125, 0], "name" : "TEXCOORD_0"}, {"bufferView" : 0, "byteOffset" : 5784, "componentType" : 5123, "count" : 756, "type" : "SCALAR", "max" : [631], "min" : [0]}, {"bufferView" : 7, "byteOffset" : 0, "componentType" : 5126, "count" : 632, "type" : "VEC3", "max" : [4.795539855957031, 10.515307426452637, 1.1932560205459595], "min" : [2.4090278148651123, 9.049033164978027, -1.1932560205459595], "name" : "POSITION"}, {"bufferView" : 7, "byteOffset" : 12, "componentType" : 5126, "count" : 632, "type" : "VEC3", "max" : [0.944766104221344, 1.0000044107437134, 0.944757342338562], "min" : [-0.944757342338562, -1.0000044107437134, -0.944757342338562], "name" : "NORMAL"}, {"bufferView" : 7, "byteOffset" : 24, "componentType" : 5126, "count" : 632, "type" : "VEC2", "max" : [1, 0.9900000095367432], "min" : [0, 0], "name" : "TEXCOORD_0"}, {"bufferView" : 0, "byteOffset" : 7296, "componentType" : 5123, "count" : 276, "type" : "SCALAR", "max" : [231], "min" : [0]}, {"bufferView" : 8, "byteOffset" : 0, "componentType" : 5126, "count" : 232, "type" : "VEC3", "max" : [8.072528839111328, 20.686965942382812, -4.924988269805908], "min" : [6.555069446563721, 12.551497459411621, -6.6771979331970215], "name" : "POSITION"}, {"bufferView" : 8, "byteOffset" : 12, "componentType" : 5126, "count" : 232, "type" : "VEC3", "max" : [1.0000044107437134, 1.0000044107437134, 0.866605281829834], "min" : [-1.0000044107437134, -1.0000044107437134, -0.866605281829834], "name" : "NORMAL"}, {"bufferView" : 8, "byteOffset" : 24, "componentType" : 5126, "count" : 232, "type" : "VEC2", "max" : [1, 0.9900000095367432], "min" : [-8.940696716308594E-08, 0], "name" : "TEXCOORD_0"}, {"bufferView" : 0, "byteOffset" : 7848, "componentType" : 5123, "count" : 276, "type" : "SCALAR", "max" : [231], "min" : [0]}, {"bufferView" : 9, "byteOffset" : 0, "componentType" : 5126, "count" : 232, "type" : "VEC3", "max" : [-11.181207656860352, 20.686965942382812, -4.924988269805908], "min" : [-12.698667526245117, 12.551497459411621, -6.6771979331970215], "name" : "POSITION"}, {"bufferView" : 9, "byteOffset" : 12, "componentType" : 5126, "count" : 232, "type" : "VEC3", "max" : [1.0000044107437134, 1.0000044107437134, 0.866605281829834], "min" : [-1.0000044107437134, -1.0000044107437134, -0.866605281829834], "name" : "NORMAL"}, {"bufferView" : 9, "byteOffset" : 24, "componentType" : 5126, "count" : 232, "type" : "VEC2", "max" : [1, 0.9900000095367432], "min" : [-8.940696716308594E-08, 0], "name" : "TEXCOORD_0"}, {"bufferView" : 0, "byteOffset" : 8400, "componentType" : 5123, "count" : 66, "type" : "SCALAR", "max" : [54], "min" : [0]}, {"bufferView" : 10, "byteOffset" : 0, "componentType" : 5126, "count" : 55, "type" : "VEC3", "max" : [19.221826553344727, 9.01457405090332, 3.6221923828125], "min" : [15.511215209960938, 4.303343296051025, -3.6221923828125], "name" : "POSITION"}, {"bufferView" : 10, "byteOffset" : 12, "componentType" : 5126, "count" : 55, "type" : "VEC3", "max" : [0.9995450973510742, 0.6311034560203552, 0.7864120006561279], "min" : [-0.9997707009315491, -0.8284985423088074, -1.0000044107437134], "name" : "NORMAL"}, {"bufferView" : 10, "byteOffset" : 24, "componentType" : 5126, "count" : 55, "type" : "VEC2", "max" : [0.875, 1], "min" : [0.125, 0], "name" : "TEXCOORD_0"}, {"bufferView" : 0, "byteOffset" : 8532, "componentType" : 5123, "count" : 216, "type" : "SCALAR", "max" : [179], "min" : [0]}, {"bufferView" : 11, "byteOffset" : 0, "componentType" : 5126, "count" : 180, "type" : "VEC3", "max" : [3.763204574584961, 8.36684513092041, 4.229191780090332], "min" : [1.8524019718170166, 2.3531582355499268, -4.229191780090332], "name" : "POSITION"}, {"bufferView" : 11, "byteOffset" : 12, "componentType" : 5126, "count" : 180, "type" : "VEC3", "max" : [1.0000044107437134, 0.7503020167350769, 0.9999852180480957], "min" : [-1.0000044107437134, -1.0000044107437134, -0.9999852180480957], "name" : "NORMAL"}, {"bufferView" : 11, "byteOffset" : 24, "componentType" : 5126, "count" : 180, "type" : "VEC2", "max" : [0.875, 1], "min" : [0.125, 0], "name" : "TEXCOORD_0"}, {"bufferView" : 0, "byteOffset" : 8964, "componentType" : 5123, "count" : 72, "type" : "SCALAR", "max" : [59], "min" : [0]}, {"bufferView" : 12, "byteOffset" : 0, "componentType" : 5126, "count" : 60, "type" : "VEC3", "max" : [2.0022730827331543, 0.447307825088501, 0.9878184795379639], "min" : [1.930323600769043, 0.39094167947769165, -0.9878184795379639], "name" : "POSITION"}, {"bufferView" : 12, "byteOffset" : 12, "componentType" : 5126, "count" : 60, "type" : "VEC3", "max" : [1.0000044107437134, 1.0000044107437134, 1.0000044107437134], "min" : [-1.0000044107437134, -1.0000044107437134, -1.0000044107437134], "name" : "NORMAL"}, {"bufferView" : 12, "byteOffset" : 24, "componentType" : 5126, "count" : 60, "type" : "VEC2", "max" : [0.875, 1], "min" : [0.125, 0], "name" : "TEXCOORD_0"}, {"bufferView" : 0, "byteOffset" : 9108, "componentType" : 5123, "count" : 72, "type" : "SCALAR", "max" : [59], "min" : [0]}, {"bufferView" : 13, "byteOffset" : 0, "componentType" : 5126, "count" : 60, "type" : "VEC3", "max" : [0.9788849949836731, 1.0349622964859009, 1.2218191623687744], "min" : [0.3654159605503082, 0.9565761685371399, -1.2218191623687744], "name" : "POSITION"}, {"bufferView" : 13, "byteOffset" : 12, "componentType" : 5126, "count" : 60, "type" : "VEC3", "max" : [1.0000044107437134, 1.0000044107437134, 1.0000044107437134], "min" : [-1.0000044107437134, -1.0000044107437134, -1.0000044107437134], "name" : "NORMAL"}, {"bufferView" : 13, "byteOffset" : 24, "componentType" : 5126, "count" : 60, "type" : "VEC2", "max" : [0.875, 1], "min" : [0.125, 0], "name" : "TEXCOORD_0"}, {"bufferView" : 0, "byteOffset" : 9252, "componentType" : 5123, "count" : 72, "type" : "SCALAR", "max" : [59], "min" : [0]}, {"bufferView" : 14, "byteOffset" : 0, "componentType" : 5126, "count" : 60, "type" : "VEC3", "max" : [0.07301411032676697, 1.0349622964859009, 1.2218191623687744], "min" : [-0.5404548645019531, 0.9565761685371399, -1.2218191623687744], "name" : "POSITION"}, {"bufferView" : 14, "byteOffset" : 12, "componentType" : 5126, "count" : 60, "type" : "VEC3", "max" : [1.0000044107437134, 1.0000044107437134, 1.0000044107437134], "min" : [-1.0000044107437134, -1.0000044107437134, -1.0000044107437134], "name" : "NORMAL"}, {"bufferView" : 14, "byteOffset" : 24, "componentType" : 5126, "count" : 60, "type" : "VEC2", "max" : [0.875, 1], "min" : [0.125, 0], "name" : "TEXCOORD_0"}, {"bufferView" : 0, "byteOffset" : 9396, "componentType" : 5123, "count" : 72, "type" : "SCALAR", "max" : [59], "min" : [0]}, {"bufferView" : 15, "byteOffset" : 0, "componentType" : 5126, "count" : 60, "type" : "VEC3", "max" : [-0.9203458428382874, 1.0349622964859009, 1.2218191623687744], "min" : [-1.5338149070739746, 0.9565761685371399, -1.2218191623687744], "name" : "POSITION"}, {"bufferView" : 15, "byteOffset" : 12, "componentType" : 5126, "count" : 60, "type" : "VEC3", "max" : [1.0000044107437134, 1.0000044107437134, 1.0000044107437134], "min" : [-1.0000044107437134, -1.0000044107437134, -1.0000044107437134], "name" : "NORMAL"}, {"bufferView" : 15, "byteOffset" : 24, "componentType" : 5126, "count" : 60, "type" : "VEC2", "max" : [0.875, 1], "min" : [0.125, 0], "name" : "TEXCOORD_0"}, {"bufferView" : 0, "byteOffset" : 9540, "componentType" : 5123, "count" : 72, "type" : "SCALAR", "max" : [59], "min" : [0]}, {"bufferView" : 16, "byteOffset" : 0, "componentType" : 5126, "count" : 60, "type" : "VEC3", "max" : [1.7677724361419678, 0.28850966691970825, 1.2089489698410034], "min" : [1.3121211528778076, 0.23028872907161713, -1.2089489698410034], "name" : "POSITION"}, {"bufferView" : 16, "byteOffset" : 12, "componentType" : 5126, "count" : 60, "type" : "VEC3", "max" : [1.0000044107437134, 1.0000044107437134, 1.0000044107437134], "min" : [-1.0000044107437134, -1.0000044107437134, -1.0000044107437134], "name" : "NORMAL"}, {"bufferView" : 16, "byteOffset" : 24, "componentType" : 5126, "count" : 60, "type" : "VEC2", "max" : [0.875, 1], "min" : [0.125, 0], "name" : "TEXCOORD_0"}, {"bufferView" : 0, "byteOffset" : 9684, "componentType" : 5123, "count" : 150, "type" : "SCALAR", "max" : [116], "min" : [0]}, {"bufferView" : 17, "byteOffset" : 0, "componentType" : 5126, "count" : 117, "type" : "VEC3", "max" : [21.402740478515625, 12.733732223510742, 3.127321243286133], "min" : [20.44938850402832, 7.733192443847656, -3.127321243286133], "name" : "POSITION"}, {"bufferView" : 17, "byteOffset" : 12, "componentType" : 5126, "count" : 117, "type" : "VEC3", "max" : [1.0000044107437134, 1.0000044107437134, 1.0000044107437134], "min" : [-1.0000044107437134, -1.0000044107437134, -1.0000044107437134], "name" : "NORMAL"}, {"bufferView" : 17, "byteOffset" : 24, "componentType" : 5126, "count" : 117, "type" : "VEC2", "max" : [0.875, 1], "min" : [0.125, 0], "name" : "TEXCOORD_0"}, {"bufferView" : 0, "byteOffset" : 9984, "componentType" : 5123, "count" : 162, "type" : "SCALAR", "max" : [134], "min" : [0]}, {"bufferView" : 18, "byteOffset" : 0, "componentType" : 5126, "count" : 135, "type" : "VEC3", "max" : [2.2237770557403564, 3.2921361923217773, 1.262702226638794], "min" : [2.1317594051361084, 2.016711711883545, -1.262702226638794], "name" : "POSITION"}, {"bufferView" : 18, "byteOffset" : 12, "componentType" : 5126, "count" : 135, "type" : "VEC3", "max" : [0.9997879862785339, 0.7037070393562317, 0.969080924987793], "min" : [-0.016400163993239403, -0.9991904497146606, -1.0000044107437134], "name" : "NORMAL"}, {"bufferView" : 18, "byteOffset" : 24, "componentType" : 5126, "count" : 135, "type" : "VEC2", "max" : [0.625, 0.2500000596046448], "min" : [0.375, 0], "name" : "TEXCOORD_0"}, {"bufferView" : 0, "byteOffset" : 10308, "componentType" : 5123, "count" : 66, "type" : "SCALAR", "max" : [53], "min" : [0]}, {"bufferView" : 19, "byteOffset" : 0, "componentType" : 5126, "count" : 54, "type" : "VEC3", "max" : [-11.796442985534668, -8.658712387084961, 2.4259793758392334], "min" : [-13.211649894714355, -10.073919296264648, -2.4259793758392334], "name" : "POSITION"}, {"bufferView" : 19, "byteOffset" : 12, "componentType" : 5126, "count" : 54, "type" : "VEC3", "max" : [1.0000044107437134, 1.0000044107437134, 1.0000044107437134], "min" : [-1.0000044107437134, -1.0000044107437134, -1.0000044107437134], "name" : "NORMAL"}, {"bufferView" : 19, "byteOffset" : 24, "componentType" : 5126, "count" : 54, "type" : "VEC2", "max" : [0.875, 1], "min" : [0.125, 0], "name" : "TEXCOORD_0"}], "asset" : {"generator" : "Aspose.3D 23.9.0", "version" : "2.0"}, "buffers" : [{"uri" : "data:application/octet-stream;base64,", "byteLength" : 177560}], "bufferViews" : [{"buffer" : 0, "byteOffset" : 0, "byteLength" : 10440, "target" : 34963}, {"buffer" : 0, "byteOffset" : 10444, "byteLength" : 30720, "byteStride" : 32, "target" : 34962}, {"buffer" : 0, "byteOffset" : 41168, "byteLength" : 1152, "byteStride" : 32, "target" : 34962}, {"buffer" : 0, "byteOffset" : 42324, "byteLength" : 2304, "byteStride" : 32, "target" : 34962}, {"buffer" : 0, "byteOffset" : 44632, "byteLength" : 2304, "byteStride" : 32, "target" : 34962}, {"buffer" : 0, "byteOffset" : 46940, "byteLength" : 54912, "byteStride" : 32, "target" : 34962}, {"buffer" : 0, "byteOffset" : 101856, "byteLength" : 1152, "byteStride" : 32, "target" : 34962}, {"buffer" : 0, "byteOffset" : 103012, "byteLength" : 24192, "byteStride" : 32, "target" : 34962}, {"buffer" : 0, "byteOffset" : 127208, "byteLength" : 8832, "byteStride" : 32, "target" : 34962}, {"buffer" : 0, "byteOffset" : 136044, "byteLength" : 8832, "byteStride" : 32, "target" : 34962}, {"buffer" : 0, "byteOffset" : 144880, "byteLength" : 2112, "byteStride" : 32, "target" : 34962}, {"buffer" : 0, "byteOffset" : 146996, "byteLength" : 6912, "byteStride" : 32, "target" : 34962}, {"buffer" : 0, "byteOffset" : 153912, "byteLength" : 2304, "byteStride" : 32, "target" : 34962}, {"buffer" : 0, "byteOffset" : 156220, "byteLength" : 2304, "byteStride" : 32, "target" : 34962}, {"buffer" : 0, "byteOffset" : 158528, "byteLength" : 2304, "byteStride" : 32, "target" : 34962}, {"buffer" : 0, "byteOffset" : 160836, "byteLength" : 2304, "byteStride" : 32, "target" : 34962}, {"buffer" : 0, "byteOffset" : 163144, "byteLength" : 2304, "byteStride" : 32, "target" : 34962}, {"buffer" : 0, "byteOffset" : 165452, "byteLength" : 4800, "byteStride" : 32, "target" : 34962}, {"buffer" : 0, "byteOffset" : 170256, "byteLength" : 5184, "byteStride" : 32, "target" : 34962}, {"buffer" : 0, "byteOffset" : 175444, "byteLength" : 2112, "byteStride" : 32, "target" : 34962}], "images" : [{"uri" : "data:image/png;base64,"}], "materials" : [{"name" : "Material", "extensions" : {"KHR_materials_specular" : {"specularColorTexture" : {"index" : 0}, "specularColorFactor" : [1.3214856815344136, 1.1400829803994252, 1.0518330054052016]}, "KHR_materials_ior" : {"ior" : 1.4500000476837158}}, "pbrMetallicRoughness" : {"baseColorFactor" : [1, 1, 1, 1], "baseColorTexture" : {"index" : 0, "texCoord" : 0}, "metallicFactor" : 0, "roughnessFactor" : 0.8345454931259155}, "emissiveFactor" : [0, 0, 0], "alphaMode" : "OPAQUE", "doubleSided" : true}], "meshes" : [{"primitives" : [{"attributes" : {"POSITION" : 1, "NORMAL" : 2, "TEXCOORD_0" : 3}, "indices" : 0, "material" : 0, "mode" : 4}]}, {"primitives" : [{"attributes" : {"POSITION" : 5, "NORMAL" : 6, "TEXCOORD_0" : 7}, "indices" : 4, "mode" : 4}]}, {"primitives" : [{"attributes" : {"POSITION" : 9, "NORMAL" : 10, "TEXCOORD_0" : 11}, "indices" : 8, "mode" : 4}]}, {"primitives" : [{"attributes" : {"POSITION" : 13, "NORMAL" : 14, "TEXCOORD_0" : 15}, "indices" : 12, "mode" : 4}]}, {"primitives" : [{"attributes" : {"POSITION" : 17, "NORMAL" : 18, "TEXCOORD_0" : 19}, "indices" : 16, "mode" : 4}]}, {"primitives" : [{"attributes" : {"POSITION" : 21, "NORMAL" : 22, "TEXCOORD_0" : 23}, "indices" : 20, "mode" : 4}]}, {"primitives" : [{"attributes" : {"POSITION" : 25, "NORMAL" : 26, "TEXCOORD_0" : 27}, "indices" : 24, "mode" : 4}]}, {"primitives" : [{"attributes" : {"POSITION" : 29, "NORMAL" : 30, "TEXCOORD_0" : 31}, "indices" : 28, "mode" : 4}]}, {"primitives" : [{"attributes" : {"POSITION" : 33, "NORMAL" : 34, "TEXCOORD_0" : 35}, "indices" : 32, "mode" : 4}]}, {"primitives" : [{"attributes" : {"POSITION" : 37, "NORMAL" : 38, "TEXCOORD_0" : 39}, "indices" : 36, "mode" : 4}]}, {"primitives" : [{"attributes" : {"POSITION" : 41, "NORMAL" : 42, "TEXCOORD_0" : 43}, "indices" : 40, "mode" : 4}]}, {"primitives" : [{"attributes" : {"POSITION" : 45, "NORMAL" : 46, "TEXCOORD_0" : 47}, "indices" : 44, "mode" : 4}]}, {"primitives" : [{"attributes" : {"POSITION" : 49, "NORMAL" : 50, "TEXCOORD_0" : 51}, "indices" : 48, "mode" : 4}]}, {"primitives" : [{"attributes" : {"POSITION" : 53, "NORMAL" : 54, "TEXCOORD_0" : 55}, "indices" : 52, "mode" : 4}]}, {"primitives" : [{"attributes" : {"POSITION" : 57, "NORMAL" : 58, "TEXCOORD_0" : 59}, "indices" : 56, "mode" : 4}]}, {"primitives" : [{"attributes" : {"POSITION" : 61, "NORMAL" : 62, "TEXCOORD_0" : 63}, "indices" : 60, "mode" : 4}]}, {"primitives" : [{"attributes" : {"POSITION" : 65, "NORMAL" : 66, "TEXCOORD_0" : 67}, "indices" : 64, "mode" : 4}]}, {"primitives" : [{"attributes" : {"POSITION" : 69, "NORMAL" : 70, "TEXCOORD_0" : 71}, "indices" : 68, "mode" : 4}]}, {"primitives" : [{"attributes" : {"POSITION" : 73, "NORMAL" : 74, "TEXCOORD_0" : 75}, "indices" : 72, "mode" : 4}]}], "nodes" : [{"matrix" : [-1.3435885648505064E-07, -1.0000001343588565, 0, 0, 1.0000001343588565, -1.3435885648505064E-07, 0, 0, 0, 0, 1, 0, 0, 0, 0, 1], "mesh" : 0, "name" : "THE BASE"}, {"matrix" : [0.3718022108078003, 0, 0, 0, 0, 0.3718022108078003, 0, 0, 0, 0, 0.3718022108078003, 0, 0, 0, 0, 1], "mesh" : 1, "name" : "DOOR"}, {"matrix" : [0.12189137935638428, 0, 0, 0, 0, 0.12189137935638428, 0, 0, 0, 0, 0.12189137935638428, 0, 0, 0, 0, 1], "mesh" : 2, "name" : "bell lines.001"}, {"matrix" : [0.12189137935638428, 0, 0, 0, 0, 0.12189137935638428, 0, 0, 0, 0, 0.12189137935638428, 0, 0, 0, 0, 1], "mesh" : 3, "name" : "bell lines"}, {"matrix" : [0.03183859586715698, 0, 0, 0, 0, 0.03183859586715698, 0, 0, 0, 0, 0.03183859586715698, 0, 0, 0, 0, 1], "mesh" : 4, "name" : "bell top rod"}, {"matrix" : [0.38413766026496887, 0, 0, 0, 0, 0.38413766026496887, 0, 0, 0, 0, 0.38413766026496887, 0, 1.3626964092254639, 2.7677154541015625, -0.0076482053846120834, 1], "mesh" : 5, "name" : "IDK BELL THING"}, {"matrix" : [0.3748982548713684, 0, 0, 0, 0, 0.3748982548713684, 0, 0, 0, 0, 0.3748982548713684, 0, 0, 0, 0, 1], "mesh" : 6, "name" : "The Bell"}, {"matrix" : [0.15521663427352905, 0, 0, 0, 0, 0.15521663427352905, 0, 0, 0, 0, 0.15521663427352905, 0, 0, 0, 0, 1], "mesh" : 7, "name" : "Cylinder"}, {"matrix" : [0.15521663427352905, 0, 0, 0, 0, 0.15521663427352905, 0, 0, 0, 0, 0.15521663427352905, 0, 0, 0, 0, 1], "mesh" : 8, "name" : "Cylinder.001"}, {"matrix" : [0.12395262718200684, 0, 0, 0, 0, 0.12395262718200684, 0, 0, 0, 0, 0.12395262718200684, 0, 0, 0, 0, 1], "mesh" : 9, "name" : "Cube"}, {"matrix" : [-0.12785296142101288, 0, 0, 0, 0, 0.0808786079287529, 0, 0, 0, 0, 0.0808786079287529, 0, 2.39675235748291, 0, 0, 1], "mesh" : 10, "name" : "Cube.001"}, {"mesh" : 11, "name" : "WINDOW SILL"}, {"mesh" : 12, "name" : "WINDOW SILL.001"}, {"mesh" : 13, "name" : "WINDOW SILL.002"}, {"mesh" : 14, "name" : "WINDOW SILL.003"}, {"mesh" : 15, "name" : "WINDOW SILL.004"}, {"matrix" : [0.09532922506332397, 0, 0, 0, 0, 0.09532922506332397, 0, 0, 0, 0, 0.09532922506332397, 0, 0, 0, 0, 1], "mesh" : 16, "name" : "Cube.002"}, {"matrix" : [0.8915906548500061, 0, 0, 0, 0, 0.8915906548500061, 0, 0, 0, 0, 0.8915906548500061, 0, 0, 0, 0, 1], "mesh" : 17, "name" : "Cube.003"}, {"matrix" : [-0.15087831020355225, 0, 0, 0, 0, -0.15087831020355225, 0, 0, 0, 0, -0.15087831020355225, 0, 0, 0, 0, 1], "mesh" : 18, "name" : "Cube.004"}], "samplers" : [{"magFilter" : 9729, "minFilter" : 9987, "wrapS" : 10497, "wrapT" : 10497}], "scene" : 0, "scenes" : [{"nodes" : [0, 1, 2, 3, 4, 5, 6, 7, 8, 9, 10, 11, 12, 13, 14, 15, 16, 17, 18]}], "textures" : [{"sampler" : 0, "source" : 0, "name" : ""}]}